# xmcd
#
# Track frame offsets: 
#        150
#        20544
#        34399
#        46099
#        56345
#        71227
#        94574
#        108768
#        128891
#        146072
#        158383
#        176998
#        206568
#        222519
#        250857
#        267358
#        283851
#        301878
#        327691
#
# Disc length: 4521 seconds
#
# Revision: 0
# Processed by: cddbd v1.5.2PL0 Copyright (c) Steve Scherf et al.
# Submitted via: ExactAudioCopy v1.0b3
#
DISCID=1f11a713
DTITLE=Steve Earle - The Definitive Collection 1986-1992 - CD1
DYEAR=1992
DGENRE=Country
TTITLE0=Copperhead Road
TTITLE1=The Devil's Right Hand
TTITLE2=Guitar Town
TTITLE3=Think it Over
TTITLE4=Regular Guy
TTITLE5=The Other Kind
TTITLE6=San Antonio Girl
TTITLE7=Angry Young Man
TTITLE8=Someday
TTITLE9=Hopeless Romantics
TTITLE10=Johnny Come Lately
TTITLE11=Dead Flowers
TTITLE12=Snake Oil
TTITLE13=Billy Austin
TTITLE14=I Love You Too Much
TTITLE15=Hillbilly Highway
TTITLE16=Good Ol' Boy (Gettin' Tough)
TTITLE17=It's All Up to You
TTITLE18=My Baby Worships Me
EXTD=
EXTT0=
EXTT1=
EXTT2=
EXTT3=
EXTT4=
EXTT5=
EXTT6=
EXTT7=
EXTT8=
EXTT9=
EXTT10=
EXTT11=
EXTT12=
EXTT13=
EXTT14=
EXTT15=
EXTT16=
EXTT17=
EXTT18=
PLAYORDER=
